<?xml version="1.0" standalone="no"?>
<!DOCTYPE svg PUBLIC "-//W3C//DTD SVG 20010904//EN"
 "http://www.w3.org/TR/2001/REC-SVG-20010904/DTD/svg10.dtd">
<svg version="1.0" xmlns="http://www.w3.org/2000/svg"
 width="820.000000pt" height="518.000000pt" viewBox="0 0 820.000000 518.000000"
 preserveAspectRatio="xMidYMid meet">
<metadata>
Created by potrace 1.15, written by Peter Selinger 2001-2017
</metadata>
<g transform="translate(0.000000,518.000000) scale(0.100000,-0.100000)"
fill="#000000" stroke="none">
<path d="M5013 4748 c-6 -7 -13 -22 -17 -33 -3 -11 -30 -36 -59 -55 -66 -45
-196 -175 -269 -271 -91 -118 -150 -225 -213 -383 -32 -81 -65 -150 -73 -153
-19 -8 -42 23 -43 56 0 22 -3 20 -19 -16 -11 -24 -23 -43 -28 -43 -5 0 -22 26
-38 58 -36 70 -176 213 -257 261 -78 46 -209 89 -299 99 -41 4 -81 6 -88 4
-14 -5 75 -63 190 -124 43 -23 104 -62 135 -86 54 -43 93 -97 80 -110 -4 -4
-77 -10 -163 -13 -86 -4 -168 -11 -182 -17 -25 -10 -25 -10 14 -27 53 -23 102
-30 110 -16 10 16 36 13 36 -4 0 -8 22 -26 50 -40 71 -36 116 -79 136 -131 35
-91 -2 -262 -73 -336 -29 -31 -94 -55 -166 -62 -110 -11 -135 -75 -102 -259
30 -170 122 -301 253 -363 42 -20 95 -44 117 -55 22 -10 69 -26 105 -35 107
-26 132 -47 120 -98 -10 -41 -70 -156 -81 -156 -6 0 -13 -8 -17 -18 -4 -9 -41
-69 -82 -132 -42 -63 -82 -127 -89 -142 -8 -16 -18 -28 -23 -28 -4 0 -8 -8 -8
-19 0 -10 -7 -24 -15 -31 -8 -7 -15 -18 -15 -26 0 -7 -6 -19 -13 -26 -7 -7
-14 -15 -14 -18 -1 -19 -16 -50 -24 -50 -6 0 -8 -4 -4 -9 3 -5 1 -12 -5 -16
-6 -4 -8 -11 -5 -16 4 -5 1 -9 -4 -9 -6 0 -11 -6 -11 -14 0 -7 -6 -19 -14 -25
-7 -6 -11 -22 -8 -36 2 -15 0 -25 -7 -25 -6 0 -11 5 -11 11 0 5 -5 7 -10 4 -6
-4 -4 -12 5 -21 17 -18 20 -28 5 -19 -15 9 -41 -21 -34 -39 3 -9 1 -16 -5 -16
-13 0 -32 -42 -37 -83 -2 -16 -14 -37 -27 -47 -17 -15 -19 -21 -10 -31 10 -10
9 -17 -4 -31 -18 -20 -20 -28 -27 -94 -4 -39 -3 -41 19 -36 14 2 30 10 36 18
6 8 19 14 29 14 9 0 25 9 35 20 10 11 23 20 30 20 7 0 20 9 30 20 10 11 23 20
30 20 6 0 29 15 51 32 22 18 48 38 59 44 11 6 29 25 40 42 11 17 28 34 39 38
10 3 54 42 97 86 43 44 82 78 86 75 5 -3 18 8 28 24 22 32 52 46 67 31 10 -10
-4 -81 -29 -147 -29 -76 -205 -425 -214 -425 -5 0 -9 -5 -9 -11 0 -28 -161
-264 -255 -374 -155 -182 -304 -292 -381 -283 -20 2 -34 -1 -34 -7 -1 -5 -7 1
-15 15 -10 18 -10 27 -2 32 8 5 6 9 -5 13 -28 11 -37 61 -35 183 2 106 4 120
24 141 12 13 20 28 17 32 -2 4 0 10 6 14 6 4 8 11 4 16 -3 5 0 17 7 25 16 20
20 42 8 50 -16 10 -10 24 11 24 11 0 20 5 20 10 0 6 -4 10 -9 10 -5 0 -22 5
-38 12 -15 6 -41 12 -58 14 -67 6 -99 18 -137 55 -22 20 -46 40 -54 43 -9 3
-12 10 -9 16 3 5 -19 36 -49 67 -30 31 -61 69 -68 83 -7 14 -21 34 -31 45 -45
50 -126 246 -153 370 -69 325 -79 714 -25 1011 45 247 106 393 195 468 144
121 277 185 556 268 37 11 46 18 54 46 5 18 7 35 4 38 -16 15 -523 -70 -512
-87 3 -5 -10 -28 -29 -52 -177 -218 -303 -609 -362 -1117 -22 -188 -30 -636
-16 -835 51 -686 238 -1076 542 -1124 273 -44 641 215 1025 719 410 538 684
1110 737 1538 l12 104 67 -84 c86 -109 140 -158 175 -158 55 0 131 111 169
250 28 101 26 329 -4 433 -51 178 -168 346 -308 444 -48 34 -164 89 -229 109
-65 20 -303 26 -400 11 -73 -11 -82 -2 -68 68 17 78 83 225 155 341 33 55 72
118 85 140 13 23 33 52 46 66 12 13 53 58 90 101 38 42 101 102 140 134 84 68
88 72 85 97 -4 24 -22 31 -35 14z m-577 -1066 c123 -90 215 -274 179 -360 -21
-47 -70 -97 -163 -160 -108 -74 -201 -122 -236 -122 -35 0 -63 30 -72 77 -17
90 34 327 101 464 64 133 112 158 191 101z"/>
</g>
</svg>
